<svg width="639" height="119" viewBox="0 0 639 119" fill="none" xmlns="http://www.w3.org/2000/svg">
<path d="M68.0625 2.39062V116.227H38.4609V68.4141H29.6016V116.227H0V2.39062H29.6016V43.1016H38.4609V2.39062H68.0625Z" fill="white"/>
<path d="M147.305 2.39062V78.4688C147.305 87.0938 147.023 93.1641 146.461 96.6797C145.898 100.148 144.234 103.734 141.469 107.438C138.703 111.094 135.047 113.883 130.5 115.805C126 117.68 120.68 118.617 114.539 118.617C107.742 118.617 101.742 117.492 96.5391 115.242C91.3359 112.992 87.4453 110.062 84.8672 106.453C82.2891 102.844 80.7656 99.0469 80.2969 95.0625C79.8281 91.0312 79.5938 82.5938 79.5938 69.75V2.39062H109.195V87.75C109.195 92.7188 109.453 95.9062 109.969 97.3125C110.531 98.6719 111.633 99.3516 113.273 99.3516C115.148 99.3516 116.344 98.6016 116.859 97.1016C117.422 95.5547 117.703 91.9453 117.703 86.2734V2.39062H147.305Z" fill="white"/>
<path d="M250.102 2.39062V116.227H224.227V39.375L213.891 116.227H195.539L184.641 41.1328V116.227H158.766V2.39062H197.086C198.211 9.23438 199.406 17.2969 200.672 26.5781L204.75 55.5469L211.5 2.39062H250.102Z" fill="white"/>
<path d="M261.984 2.39062H291.797C299.859 2.39062 306.047 3.02344 310.359 4.28906C314.719 5.55469 317.977 7.38281 320.133 9.77344C322.336 12.1641 323.812 15.0703 324.562 18.4922C325.359 21.8672 325.758 27.1172 325.758 34.2422V44.1562C325.758 51.4219 325.008 56.7188 323.508 60.0469C322.008 63.375 319.242 65.9297 315.211 67.7109C311.227 69.4922 306 70.3828 299.531 70.3828H291.586V116.227H261.984V2.39062ZM291.586 21.8672V50.8359C292.43 50.8828 293.156 50.9062 293.766 50.9062C296.484 50.9062 298.359 50.25 299.391 48.9375C300.469 47.5781 301.008 44.7891 301.008 40.5703V31.2188C301.008 27.3281 300.398 24.7969 299.18 23.625C297.961 22.4531 295.43 21.8672 291.586 21.8672Z" fill="white"/>
<path d="M334.266 2.39062H363.797C373.125 2.39062 380.18 3.11719 384.961 4.57031C389.789 6.02344 393.68 8.97656 396.633 13.4297C399.586 17.8359 401.062 24.9609 401.062 34.8047C401.062 41.4609 400.008 46.1016 397.898 48.7266C395.836 51.3516 391.734 53.3672 385.594 54.7734C392.438 56.3203 397.078 58.8984 399.516 62.5078C401.953 66.0703 403.172 71.5547 403.172 78.9609V89.5078C403.172 97.1953 402.281 102.891 400.5 106.594C398.766 110.297 395.977 112.828 392.133 114.188C388.289 115.547 380.414 116.227 368.508 116.227H334.266V2.39062ZM363.867 21.8672V47.1797C365.133 47.1328 366.117 47.1094 366.82 47.1094C369.727 47.1094 371.578 46.4062 372.375 45C373.172 43.5469 373.57 39.4453 373.57 32.6953C373.57 29.1328 373.242 26.6484 372.586 25.2422C371.93 23.7891 371.062 22.875 369.984 22.5C368.953 22.125 366.914 21.9141 363.867 21.8672ZM363.867 64.8984V96.75C368.039 96.6094 370.688 95.9531 371.812 94.7812C372.984 93.6094 373.57 90.7266 373.57 86.1328V75.5156C373.57 70.6406 373.055 67.6875 372.023 66.6562C370.992 65.625 368.273 65.0391 363.867 64.8984Z" fill="white"/>
<path d="M464.977 2.39062L481.922 116.227H451.617L450.141 95.7656H439.523L437.766 116.227H407.109L422.156 2.39062H464.977ZM449.297 75.5859C447.797 62.6953 446.297 46.7812 444.797 27.8438C441.797 49.5938 439.922 65.5078 439.172 75.5859H449.297Z" fill="white"/>
<path d="M556.102 52.0312H526.5V32.2031C526.5 26.4375 526.172 22.8516 525.516 21.4453C524.906 19.9922 523.523 19.2656 521.367 19.2656C518.93 19.2656 517.383 20.1328 516.727 21.8672C516.07 23.6016 515.742 27.3516 515.742 33.1172V85.9922C515.742 91.5234 516.07 95.1328 516.727 96.8203C517.383 98.5078 518.859 99.3516 521.156 99.3516C523.359 99.3516 524.789 98.5078 525.445 96.8203C526.148 95.1328 526.5 91.1719 526.5 84.9375V70.6641H556.102V75.0938C556.102 86.8594 555.258 95.2031 553.57 100.125C551.93 105.047 548.25 109.359 542.531 113.062C536.859 116.766 529.852 118.617 521.508 118.617C512.836 118.617 505.688 117.047 500.062 113.906C494.438 110.766 490.711 106.43 488.883 100.898C487.055 95.3203 486.141 86.9531 486.141 75.7969V42.5391C486.141 34.3359 486.422 28.1953 486.984 24.1172C487.547 19.9922 489.211 16.0312 491.977 12.2344C494.789 8.4375 498.656 5.46094 503.578 3.30469C508.547 1.10156 514.242 0 520.664 0C529.383 0 536.578 1.6875 542.25 5.0625C547.922 8.4375 551.648 12.6562 553.43 17.7188C555.211 22.7344 556.102 30.5625 556.102 41.2031V52.0312Z" fill="white"/>
<path d="M637.242 2.39062L620.297 53.7891L638.859 116.227H608.273L596.32 67.4297V116.227H566.719V2.39062H596.32V46.6172L609.469 2.39062H637.242Z" fill="white"/>
</svg>
